<svg width="48" height="45" fill="none" xmlns="http://www.w3.org/2000/svg"><path fill-rule="evenodd" clip-rule="evenodd" d="M0 43.5A1.5 1.5 0 011.5 42h45a1.5 1.5 0 110 3h-45A1.5 1.5 0 010 43.5zM9.36.525A1.5 1.5 0 0110.5 0h27a1.5 1.5 0 011.14.525l8.277 9.657A4.5 4.5 0 0148 13.11v.39h-3v-.39a1.5 1.5 0 00-.36-.975L36.81 3H11.19l-7.83 9.135a1.5 1.5 0 00-.36.975v.39H0v-.39a4.5 4.5 0 011.083-2.928l8.28-9.66-.003.003z" fill="#fff"/><path d="M7.125 17.625A4.125 4.125 0 0011.25 13.5h3a4.125 4.125 0 008.25 0h3a4.125 4.125 0 008.25 0h3a4.125 4.125 0 008.25 0h3a7.125 7.125 0 01-12.75 4.374 7.113 7.113 0 01-5.625 2.75A7.11 7.11 0 0124 17.875a7.11 7.11 0 01-5.625 2.75 7.11 7.11 0 01-5.625-2.75A7.125 7.125 0 010 13.5h3a4.125 4.125 0 004.125 4.125z" fill="#fff"/><path d="M14.25 13.5a1.5 1.5 0 11-3 0 1.5 1.5 0 013 0zm11.25 0a1.5 1.5 0 11-3 0 1.5 1.5 0 013 0zm11.25 0a1.5 1.5 0 11-3 0 1.5 1.5 0 013 0z" fill="#fff"/><path fill-rule="evenodd" clip-rule="evenodd" d="M6 20.538V18H3v1.31a7.119 7.119 0 003 1.228zm-3 2.21c.933.42 1.941.697 3 .814V42H3V22.749zm39 .814a10.065 10.065 0 003-.81V42h-3V23.562zm3-4.251a7.119 7.119 0 01-3 1.227V18h3v1.31zM9 25.5a1.5 1.5 0 011.5-1.5h12a1.5 1.5 0 011.5 1.5V42h-3V27h-9v15H9V25.5zm18 0a1.5 1.5 0 011.5-1.5h9a1.5 1.5 0 011.5 1.5v12a1.5 1.5 0 01-1.5 1.5h-9a1.5 1.5 0 01-1.5-1.5v-12zm3 1.5v9h6v-9h-6z" fill="#fff"/></svg>