<svg width="46" height="46" fill="none" xmlns="http://www.w3.org/2000/svg"><path d="M23 0C10.273 0 0 10.273 0 23s10.273 23 23 23 23-10.273 23-23S35.727 0 23 0zm0 2.703c2.3 0 4.523.421 6.574 1.13L23.25 17.5c-.076.077-.076.25-.249.25-.172 0-.172-.173-.25-.25L16.427 3.833A20.14 20.14 0 0123 2.722v-.02zm-9.775 2.549l7.322 15.774c.153.326.325.422.536.422h3.834c.23 0 .383-.096.555-.422l7.226-15.774c3.029 1.725 5.635 4.197 7.475 7.149L29.9 32.277c-.077.172-.192.249-.25.249-.152 0-.152-.154-.248-.25l-3.93-8.701c-.172-.326-.325-.402-.555-.402h-3.834c-.21 0-.383.076-.555.402l-3.93 8.702c-.095.096-.076.249-.249.249-.172 0-.172-.154-.249-.25L5.75 12.402c1.802-2.952 4.447-5.424 7.475-7.15zM3.948 16.349l11.826 23c.154.326.326.575.748.575.402 0 .556-.249.728-.575l5.5-12.247c.078-.154.173-.269.25-.269.172 0 .172.192.25.269l5.577 12.247c.172.326.325.575.747.575.403 0 .575-.249.728-.575l11.865-23A20.26 20.26 0 0143.297 23c-.095 11.097-9.2 20.297-20.297 20.297-11.098 0-20.202-9.2-20.202-20.297 0-2.3.403-4.504 1.15-6.65z" fill="#fff"/></svg>