<svg width="68" height="68" fill="none" xmlns="http://www.w3.org/2000/svg"><rect y="33.648" width="47.585" height="47.585" rx="8" transform="rotate(-45 0 33.648)" fill="#4BEE6F"/><path d="M29.333 27a2.333 2.333 0 11-4.666 0 2.333 2.333 0 014.666 0zm0 7a2.333 2.333 0 11-4.666 0 2.333 2.333 0 014.666 0z" fill="#fff"/><path d="M28.296 42.296a1.833 1.833 0 11-2.592-2.591 1.833 1.833 0 012.592 2.591z" stroke="#fff"/><path d="M36.333 27a2.333 2.333 0 11-4.666 0 2.333 2.333 0 014.666 0zM34 36.333a2.333 2.333 0 100-4.666 2.333 2.333 0 000 4.666z" fill="#fff"/><path d="M35.833 41a1.833 1.833 0 11-3.665 0 1.833 1.833 0 013.665 0z" stroke="#fff"/><path d="M41 29.333a2.333 2.333 0 100-4.666 2.333 2.333 0 000 4.666z" fill="#fff"/><path d="M42.833 34a1.833 1.833 0 11-3.665 0 1.833 1.833 0 013.665 0zm-.537 8.296a1.833 1.833 0 11-2.592-2.591 1.833 1.833 0 012.592 2.591z" stroke="#fff"/></svg>