<svg width="186" height="206" fill="none" xmlns="http://www.w3.org/2000/svg"><g filter="url(#filter0_d)"><rect x="55.012" y="46.737" width="92" height="92" rx="8" transform="rotate(-30.523 55.012 46.737)" fill="#655D8E"/></g><path d="M112.343 41a16.343 16.343 0 0116.343 16.343 16.38 16.38 0 01-3.923 10.635l.679.68h1.987L140 81.227 136.229 85l-12.572-12.571v-1.987l-.679-.679a16.38 16.38 0 01-10.635 3.923 16.342 16.342 0 01-11.556-27.9A16.342 16.342 0 01112.343 41zm0 5.029a11.267 11.267 0 00-11.314 11.314 11.267 11.267 0 0011.314 11.314 11.267 11.267 0 0011.314-11.314 11.267 11.267 0 00-11.314-11.314z" fill="#fff"/><defs><filter id="filter0_d" x=".012" y=".012" width="185.976" height="205.976" filterUnits="userSpaceOnUse" color-interpolation-filters="sRGB"><feFlood flood-opacity="0" result="BackgroundImageFix"/><feColorMatrix in="SourceAlpha" values="0 0 0 0 0 0 0 0 0 0 0 0 0 0 0 0 0 0 127 0"/><feOffset dx="-25" dy="50"/><feGaussianBlur stdDeviation="15"/><feColorMatrix values="0 0 0 0 0 0 0 0 0 0 0 0 0 0 0 0 0 0 0.25 0"/><feBlend in2="BackgroundImageFix" result="effect1_dropShadow"/><feBlend in="SourceGraphic" in2="effect1_dropShadow" result="shape"/></filter></defs></svg>